# xmcd
#
# Track frame offsets:
#	150
#	16340
#	34009
#	54461
#	69063
#	90000
#	110497
#	128832
#	149361
#	166229
#	191399
#
# Disc length: 2814 seconds
#
# Revision: 1
# Processed by: cddbd v1.5.2PL0 Copyright (c) Steve Scherf et al.
# Submitted via: audiograbber 1.83.01
#
DISCID=800afc0b
DTITLE=Aluta and The Mystics - The Struggle Continues
DYEAR=2009
DGENRE=World
TTITLE0=Mellow Mood
TTITLE1=Things
TTITLE2=Shake Your Bones
TTITLE3=Deeper In
TTITLE4=You Got Me Fooled
TTITLE5=Ain't No Money
TTITLE6=Conttage In Negril
TTITLE7=Back To You
TTITLE8=Stealing
TTITLE9=Every Little
TTITLE10=Aluta and The Mystics
EXTD=
EXTT0=
EXTT1=
EXTT2=
EXTT3=
EXTT4=
EXTT5=
EXTT6=
EXTT7=
EXTT8=
EXTT9=
EXTT10=
PLAYORDER=
